# xmcd
# 
# Track frame offsets:
#   150
#   17112
#   33667
#   50085
#   65967
#   81690
#   94750
#   114205
#   134775
#   149000
#   164825
#   178177
#   190797
#   204502
#   219195
#   233315
#   245485
#   260962
#   274630
# 
# Disc length: 3872 seconds
# 
# Revision: 3
# Processed by: cddbd v1.5.2PL0 Copyright (c) Steve Scherf et al.
# Submitted via: Synapstar 1.0 
# 
DISCID=2f0f1e13
DTITLE=Various Artist - NuTech  A8
DYEAR=1900
DGENRE=Country
TTITLE0=Earl Thomas Conley - Once In A Blue Moon
TTITLE1=Lacy J. Dalton - Takin' It Easy
TTITLE2=Kenny Rogers - You Decorated My Life
TTITLE3=K. Rogers and D. West - All I Ever Need Is You
TTITLE4=Ronnie Milsap - (Theres) No Gettin' Over Me
TTITLE5=B.J. Thomas - Everybody Loves A Rain Song
TTITLE6=Juice Newton - Angel Of The Morning
TTITLE7=Eddie Rabbitt - Suspicious
TTITLE8=Oak Ridge Boys - Come On In
TTITLE9=George Jones - The Grand Tour
TTITLE10=Becky Hobbs and Moe Bandy - Let's Get Over Them Together
TTITLE11=Charlie Rich - I Love My Friend
TTITLE12=Baily and Moe Bandy - Following The Feeling
TTITLE13=Roy Clark - Come Live With Me And Be My Love
TTITLE14=Charlie Rich - The Most Beautiful Girl
TTITLE15=Traditional - You're Gonna Love Yourself (In The Morning)
TTITLE16=Olivia Newton-John - If You Love Me (Let Me Know)
TTITLE17=Tanya Tucker - Here's Some Love
TTITLE18=George Jones - You Can Have Her (Him)
EXTD=MediaType: Karaoke CD+G Producer: Other
EXTT0=
EXTT1=
EXTT2=
EXTT3=
EXTT4=
EXTT5=
EXTT6=
EXTT7=
EXTT8=
EXTT9=
EXTT10=
EXTT11=
EXTT12=
EXTT13=
EXTT14=
EXTT15=
EXTT16=
EXTT17=
EXTT18=
PLAYORDER=
